# xmcd CD database file
# Copyright (C) 1997 Ti Kan
#
# Track frame offsets:
#  187
#  12020
#  23147
#  35990
#  50787
#  63700
#  76150
#  86875
#  100367
#  111785
#  123842
#  139120
#
# Disc length: 2029 seconds
#
# Revision: 1
# Processed by: cddbd v1.4b41PL1 Copyright (c) Steve Scherf et al.
# Submitted via: CDWizzard Release:4.31
#
DISCID=a307eb0c
DTITLE=Sonny Boy Williamson II  - Down And Out Blues
DYEAR=1900
DGENRE=
TTITLE0=Don't Start Me To Talkin'
TTITLE1=I Don't Know
TTITLE2=All My Love In Vain
TTITLE3=The Key
TTITLE4=Keep It To Yourself
TTITLE5=Dissatisfied
TTITLE6=Fattening Frogs For Snakes
TTITLE7=Wake Up Baby
TTITLE8=Your Funeral And My Trial
TTITLE9="99"
TTITLE10=Cross My Heart
TTITLE11=Let Me Explain
EXTD=CHD-31272\n\nSubmitted 7/16/97\n[Jmccoy@efn.org]
EXTT0=
EXTT1=
EXTT2=
EXTT3=
EXTT4=
EXTT5=
EXTT6=
EXTT7=
EXTT8=
EXTT9=
EXTT10=
EXTT11=
PLAYORDER=
